<?xml version="1.0" encoding="UTF-8"?>
<svg version="1.1" viewBox="0 0 1024 1024" width="1024" height="1024" xmlns="http://www.w3.org/2000/svg">
<path transform="translate(0)" d="m0 0h1024v1024h-1024z" fill="#32404D"/>
<path transform="translate(524,171)" d="m0 0 16 1 26 5 18 5 20 8 23 11 18 11 13 10 14 12 11 11 9 11 13 18 10 16 12 25 8 23 6 27 1 6v15l2 2-4 3-10 1h-2l-1 9h-3v2l4 1v1h9l5 2v11l-2 18-3 12-6 22-7 18-8 15-10 17h-2l-2 5-10 13-13 15-3 1-1 3h-2l-1 3-8 7-11 9-13 10-16 9-11 6-21 9-19 6-22 5-13 2-10 1h-5v-40l2-1 25-3 19-5-1-3-3-2 1-3h2v-2l7-1-1-7v-5l-13 4-10 3-11 1-1-16v-195l1-27h92l14 3 10 5 9 8 7 11 3 5 3 9v5h2l-3-11-4-9v-3l-2-1-2-5h2l-2-4 3-10-3-1-2-7h-6l-3-4-1-4-3-3v-2l-114-1v-21h55l30-1 2-1v-7l-3-1-1-7-9-1-6-2-1 1-7 1-60 1v-29h9l-9-1-2 1v26l-4 1h-6l-6-2h-2l-1-4v-23l-1-1v247l-2 13-6 14-9 14-4 13-5 9-6 12-1 5h-2l-2-15-6-17-10-27-4-11-7-18-5-15-4-9-6-16-6-18-2-1-2 9-6 20-5 12-8 26-8 24-6 21-3-1-6-8-9-10-6-9-5-9v-2h-2l-8-16-6-13-6-20-4-17-4-16v-12l7-32 6-16 13-28h2l3 12 5 18 6 26 3 14 1 38 1 2h2l4-11 4-12 16-46 7-20 4-10 5-16 6-11h2l8 29 7 21 9 25 8 19 8 20 6 12h2l1-4-1-10-1-36-1-106v-34l23-3-4-1 1-4h5l2 3 2-4h6l4 1h6l1 3-1 4 2 3v5l-3 5-1 9h3l6-5v-8l1-6-5-8-2-2 4-3h6l8 3v-2h8v-2h8v2l8 1v2h8l8 3v2l6 2h4 1l1-2 9 3-15-8-30-10-24-5-12-1z" fill="#162631"/>
<path transform="translate(501,172)" d="m0 0h1l1 26 1 6 7-1 7 6 3 2 1 1v-31l1-7h1v39h12l24 5 30 10 15 8 1 2-5-1-5-2 3 3-7-1-2 1v-2l-4-1-2-1v-2l-7-1-1-1-8-1v-2l-8-1v-2h-8v2h-8v2h-5l-3-2h-6l-3 3h2l5 9-1 13-2 3-7 5-2-2 1-9 2-5h2l-2-7-1-4v-3h-8-3l-1-1-4 1-1 3-2-3-2 1-1-1-3 1 1 2 4-1-1 3-16 2h-7l1 34 1 106 1 36 1 12-2 3-4-2-11-25-8-21-5-12-11-31-9-32v-4h-2l-2 5-5 11-5 17-4 9-6 18-7 20-8 23-7 21-2 3-3-1-1-2-1-38-12-52-4-12v-6h-2l-2 6-10 22-7 20-6 28v12l9 36 6 20 12 24v2h2l8 14 9 12 7 7 3 5 2 1 1-8 5-16 9-27 8-26 5-12 6-20 1-3 3 1 6 18 6 16 5 12 7 20 5 12 13 36 6 17 1 7v8h2l1-8 10-18 4-13 7-11 7-14 2-6 1-10v-248l3 2v23l2 3 6 2h9v-27l5-1 9 2-3 1-8-1v29l4-1 63-1 1-3v2h5l5 1 5 2 2 7 3 3-1 5 4 1-6 1-30 1h-35l-20-1v21h108l6 1 1 4 4 2-1 3 2 1 1 2h6l3 8 2 1-1 7-1 5 2 4h-2l3 4 6 14 1 9h-2l-4-14-8-13-7-8-9-5-7-3-11-2h-90l-2-1v238l18-4 11-4h4l1-2 1 7v7l-7 1v2l-2 1v2l5 2 1 3-17 5-19 3-13 1 1 31-1 9 6-1 18-2 13-3 20-5 19-7 17-7 17-10 11-7 11-9 10-8 7-6 4-5 6-5 9-11 10-13 3-5h2l2-5 9-16h2l-1 5v3l-1 5h3v4h-2l1 4-2 4-2 1-3 7 1 3-5 5-1 2h-4l-2 5-5 1 1 5-2 1-3 7-3 3-1 4-4 2-5 4-10 10-7 4-5 3-7 7h-2v2l-7 5-9 3v2l-9 3-2 3-7 3-10 3-1 2-20 6-2 2-18 4-7 1h-11l-4-2v2l-7 1v2h-7v-2l-7-1-3-3-4 2-1 2h-2l-1 2-5 1-5-1h-6l-6-5h-8l-7-1-4 1-2-2-2 1-10-2-10-4-1-5-5 2v-2l-12-1-2-1v-2l-3-1v-2l-3-1-2-1-1 2-7-2-1-4h7l2 1v-4l-5 2-7-1-1 2h-2l-1-3-1 3-6-3-5-4-4-2 1-2-1-3-5 2-2-4h8v3l1-3 5 2-2 2 5 1 1-1-6-4-4-2-5-2h-2l-1-2h-3l-1-2-5-1 1-3-8-7 3-1 12 9 17 10 19 10 20 8 16 5 21 5 31 4v-40l-18-2-15-3-25-7-8-4-10-4-15-8-21-14-10-9-2-1v-2l-4-2-10-11-14-19-9-15-9-19-10-30-2-14-1-13h-38l-1-2h10v-3l-4 1-4-4 4-1-2-8-6-1-2-3 43-1 3-21 4-17 7-19 8-16 5-9 12-17 11-13 4-5 8-7 9-8h2v-2l14-9h2v-2l8-4 6-4 13-6 27-9 16-4 13-2h11v-15z" fill="#32404D"/>
<path transform="translate(513,234)" d="m0 0h4l1 134v112l-2 13-6 14-9 14-4 13-5 9-6 12-1 5h-2l-2-15-6-17-10-27-4-11-7-18-5-15-4-9-6-16-6-18-2-1-2 9-6 20-5 12-8 26-8 24-6 21-3-1-6-8-9-10-6-9-5-9v-2h-2l-8-16-6-13-6-20-4-17-4-16v-12l7-32 6-16 13-28h2l3 12 5 18 6 26 3 14 1 38 1 2h2l4-11 4-12 16-46 7-20 4-10 5-16 6-11h2l8 29 7 21 9 25 8 19 8 20 6 12h2l1-4-1-10-1-36-1-106v-34l7-1z" fill="#F5F8F9"/>
<path transform="translate(517,232)" d="m0 0 3 2v23l2 3 6 2h9v-27l5-1 9 2-3 1-8-1v29l4-1 63-1 1-3v2h5l5 1 5 2 2 7 3 3-1 5 4 1-6 1-30 1h-35l-20-1v21h108l6 1 1 4 4 2-1 3 2 1 1 2h6l3 8 2 1-1 7-1 5 2 4h-2l3 4 6 14 1 9h-2l-4-14-8-13-7-8-9-5-7-3-11-2h-90l-2-1v238l18-4 11-4h4l1-2 1 7v7l-7 1v2l-2 1v2l5 2 1 3-17 5-19 3-13 1 1 31-1 9 6-1 18-2 13-3 20-5 19-7 17-7 17-10 11-7 11-9 10-8 7-6 4-5 6-5 9-11 10-13 3-5h2l2-5 9-16h2l-1 5v3l-1 5h3v4h-2l1 4-2 4-2 1-3 7 1 3-5 5-1 2h-4l-2 5-5 1 1 5-2 1-3 7-3 3-1 4-4 2-5 4-10 10-7 4-5 3-7 7h-2v2l-7 5-9 3v2l-9 3-2 3-7 3-10 3-1 2-20 6-2 2-18 4-7 1h-11l-4-2v2l-7 1v2h-7v-2l-7-1-3-3-4 2-1 2h-2l-1 2-5 1-5-1h-6l-6-5h-8l-7-1-4 1-2-2-2 1-10-2-10-4-1-5-5 2v-2l-12-1-2-1v-2l-3-1v-2l-3-1-2-1-1 2-7-2-1-4h7l2 1v-4l-5 2-7-1-1 2h-2l-1-3-1 3-6-3-5-4-4-2 1-2-1-3-5 2-2-4h8v3l1-3 5 2-2 2 5 1 1-1-6-4-4-2-5-2h-2l-1-2h-3l-1-2-5-1 1-3-8-7 3-1 12 9 17 10 19 10 20 8 16 5 21 5 31 4v-40l-18-2-15-3-18-5-1-4-2-2 6 1 6 2 2-2 2 1 11 1 2-4h7v-10l1 2h2l1-8 10-18 4-13 7-11 7-14 2-6 1-10z" fill="#172732"/>
<path transform="translate(540,322)" d="m0 0h92l14 3 10 5 9 8 7 11 3 5 4 14 3 17v13l-2 13-8 19h-2l-2 5-6 8-2 2h-3v2l-16 8-15 3h-40l1-39 30-1 9-3 6-5 3-3 4-9 1-4v-10l-4-11-8-7-5-3-8-2h-40l-2-1 1 88v102l-1 2-22 7-11 1-1-16v-195z" fill="#B0DBEA"/>
<path transform="translate(248,674)" d="m0 0h7l19 60 6 21 3 9 7-24 6-17 9-29 5-16 1-3 25-1 3 8 15 47 10 29 2 5 5-19 15-50 6-19 38-1-30 90-4 14-3 7-7 20-6 21h-14l-15-1-5-19-7-21-8-25-6-18-2-1-2 9-7 20-5 14-3 9-7 19-4 14h-28l-16-48-12-37-6-18-3-8-12-35-2-5z" fill="#F5F8F9"/>
<path transform="translate(474,229)" d="m0 0 5 1 2-1 1 4 4-3h2v3l-2 1 1 2h-7l1 34 1 106 1 36 1 12-2 3-4-2-11-25-8-21-5-12-11-31-9-32v-4h-2l-2 5-5 11-5 17-4 9-6 18-7 20-8 23-7 21-2 3-3-1-1-2-1-38-12-52-4-12v-6h-2l-2 6-10 22-7 20-6 28v12l9 36 6 20 8 16 3 5v3l-4-1v-3l-4-1-1-4h-3l1 4h-3l-4-4-3-1-3-9-2-3v-6l-3-1 1-4-3 1-1-4h-2l-5-12h-2v-3l4-1-1-6-4-2-1-8h2l-3-7v-3l-4-1 2-3-2-1 1-2h3v-3l4-4h2l2-7v-8l3-1v-7l2-9 1-10 4-8 1-9 6-11 5-2 1-4h2v-6l5-7h2l2-4h5l4-1 2 1v2h3l-2-3 1-4 1-2 5-1 3-1 1-3h2v-8l5-13 2-4h2v-2l7-1 6 1 3-1-1-2h4l1 3 4-1h2v-2l7-3 16-8 7-2v-5l3-3 6-3 7-2z" fill="#32404D"/>
<path transform="translate(702,407)" d="m0 0h40v11l-2 18-3 12-6 22-7 18-8 15-10 17h-2l-2 5-10 13-13 15-3 1-1 3h-2l-1 3-8 7-11 9-13 10-16 9-11 6-21 9-19 6-22 5-13 2-10 1h-5v-40l2-1 25-3 19-5 21-8 16-8 13-8 14-10 7-6 1-2h-5l-1 4h-2l-1 3h-3l-1 3-9 6-6 2h-4v-2l-8-1-1-5 1-1-4-1v-3l-3-1v-19h33l3 2v2l2 1v2l4 1 1 3 5 1v2l8-7 10-11 4-5 7-10 8-13 10-21 3-8 5-18 3-15z" fill="#4C9DC2"/>
<path transform="translate(488,171)" d="m0 0h12v41l-24 3-26 7-12 4-12 5-11 6-6 4h-3v2l-14 9h-2v2l-11 9-6 6h-2l-2 4-8 9-10 13-9 14-8 15-6 16-5 15-4 21-2 10-2 1h-39l1-15 4-22 8-28 9-21 8-15 8-13 20-25 22-22 14-11 19-12 21-11 22-9 30-8 17-3z" fill="#F5F8F9"/>
<path transform="translate(276,407)" d="m0 0h41l1 1 2 21 4 16 7 20 11 23 10 15 13 17 9 10 2 1v2l4 2 9 8 17 11 16 9 8 4 10 4 19 6 16 4 25 4v40l-18-1-22-4-20-5-26-10-20-10-16-10-10-7-10-8-10-9-17-17-13-17-10-15-6-10-7-14-6-16-7-24-3-14z" fill="#F5F8F9"/>
<path transform="translate(685,675)" d="m0 0h59l16 2 13 5 10 7 7 7 7 14 2 7v22l-4 13-3 6h-2l-2 5-9 8-12 6-7 2-8 1h-34v46h-33z" fill="#F5F8F9"/>
<path transform="translate(524,171)" d="m0 0 16 1 26 5 18 5 20 8 23 11 18 11 13 10 14 12 11 11 9 11 13 18 10 16 12 25 8 23 6 27 1 6v15h-40l-2-18-3-14-7-21-11-23-9-14-12-16-9-10-8-8-14-11-16-11-21-11-30-10-24-5-12-1z" fill="#B0DAEA"/>
<path transform="translate(596,675)" d="m0 0h16l12 2 12 5 8 4 10 9 5 4 3 4-1 4-10 9-11 8-3 1-6-7-10-6-13-3h-8l-14 4-8 6-7 9-4 11v19l3 10 6 10 8 7v2l16 4h9l12-3 10-5 5-7 4 2 11 9 10 8 3 3-7 8-10 9-16 8-11 3-7 1h-13l-18-4-16-8-10-7-10-10-5-7-7-17-3-18v-14l3-18 3-9 9-13 11-11 13-8 16-6z" fill="#F5F8F9"/>
<path transform="translate(517,232)" d="m0 0 3 2v23l2 3 6 2h9v-27l5-1 9 2-3 1-8-1v29l4-1 63-1 1-3v2h5l5 1 5 2 2 7 3 3-1 5 4 1-6 1-30 1h-35l-20-1v21h108l6 1 1 4 4 2-1 3 2 1 1 2h6l3 8 2 1-1 7-1 5 2 4h-2l3 4 6 14 1 9h-2l-4-14-8-13-7-8-9-5-7-3-11-2h-90l-2-1v27l-1 131h-1l-1-35v-93h-4l1 12-2 12 1 1 1 7 2 3 1 8-1 6v13l-6 5-1 2h2l4 5-1 5-5 4-1 5h5v4h-2l5 6-1 4-2 10 1 33-1 11-3 4h-2l-1-8-6 1-1 7h-1l-1-10 1-2h-2v-2h-2l1-8 1-10z" fill="#172732"/>
<path transform="translate(0)" d="m0 0h130l-1 4-3 3-3 7-4 1-3-2-1 3 4 5v3l6-1 2 1 1-2 3 2 10 1 3 5-1 2-9 1 2 1-1 5 3 1 1 5-3 1-1 2-5-2 2-5-6 1-2 4-5 1-2-2v-4l-5-1-1 3-7-1-2 6h-6l2 1v2h-2v2h-3v2h-2l-1 3v-2h-2l-1 3v-3l-3-1 2-9h-5l-4-1-3 3h6l-2 5-6-2v5l6-2 2 1 1 9 4 1 1 1v5l-4 1-6-3-6 1-1 1h-7v-2l-5 1-8 4-9-4v-3h-6l1 3-1 1 3 1v2l-10 2v3l-1 2h-2v2l-2 2v2h5l2-5v-2l5 1 6 2v-2l7-4h3l2 5-6 3h-4l-1 5 5 1v6l-1 2 4 4 3 1 2 11-1 3-5-1 1-7-5-1-5 5-6 2-4-5-1-5-4-1h-3v2l-2-1 2 4 1 5-3-1-3-5-4-3 1-4 2-6v-9l-7-1 1-5 1-1 1-14-4-5-1-5h-2l-1-4v-5h2v-8l-2-2-1-8v24l-2 1z" fill="#506171"/>
<path transform="translate(552,224)" d="m0 0h8v2l8 1v2h8l8 3v2l6 2h4 1l1-2 7 3h5l19 13 11 9 10 9 9 9 12 16 12 19 10 21 6 18-1 2-4 1v5l4-3 2 9 1 10h1l1 13-4 2-1-2 1-2-2-1 1-9h-6l-1 7h-1l-1-5-1 6h-1v-11-2l-1 9-2-4-4-17-5-11v-3l-2-1-2-5h2l-2-4 3-10-3-1-2-7h-6l-3-4-1-4-3-3v-2l-114-1v-21h55l30-1 2-1v-7l-3-1-1-7-9-1-6-2-1 1-7 1-60 1v-29h9l-9-1-2 1v26l-4 1h-6l-6-2h-2l-1-4v-23h-2l-4 1h-17v-1l7-1-4-1 1-4h5l2 3 2-4h6l4 1h6l1 3-1 4 2 3v5l-3 5-1 9h3l6-5v-8l1-6-5-8-2-2 4-3h6l8 3v-2h8z" fill="#313F4C"/>
<path transform="translate(501,172)" d="m0 0h1l1 26 1 6 7-1 7 6 3 2 1 1v-31l1-7h1v39h12l24 5 30 10 15 8 1 2-5-1-5-2 3 3-7-1-2 1v-2l-4-1-2-1v-2l-7-1-1-1-8-1v-2l-8-1v-2h-8v2h-8v2h-5l-3-2h-6l-3 3h2l5 9-1 13-2 3-7 5-2-2 1-9 2-5h2l-2-7-1-4v-3h-8-3l-1-1-4 1-1 3-2-3-2 1-1-1-3 1 1 2 4-1-1 3-7 1h-16v-1l8-1v-3l-4 3h-2l-2-3-3 1-3-1-12 3-4 3-5 3 1 2h-2v3l-13 6-12 6-5 1v2l-7 3-3-1 3-2v-2l-3 3-4 1-5-1h-7v2h-2l-2 7-4 10v6l-4 5-5 3-3-1-1 5 1 4h-3v-2h-5l-5 1-5 4-4 6-1 6h-2l-1 4-5 3-6 13v7l-4 8-1 12-2 6-1 7-2 1v8l-3 7-5 5-1 3h-3l3 3-3 2 3 1 3 7v3h-2l1 8h4 1l1 8-2 2-3-1v3l3-1 4 10v3h2l2 3h2v4l2 1 2 8 2 2 1 8 5 1 4 7v16l4 2 4 6 4 3 1 6h2l1-2 3 3 3 6 2 1v4l7 2 1 5 5 2 3 1 1 1v2l4 1 2 5v2l4-2 5 4 4 3v2l6 2 3 3h6l2 5-7-1-18-10-16-11-10-9-2-1v-2l-4-2-10-11-14-19-9-15-9-19-10-30-2-14-1-13h-38l-1-2h10v-3l-4 1-4-4 4-1-2-8-6-1-2-3 43-1 3-21 4-17 7-19 8-16 5-9 12-17 11-13 4-5 8-7 9-8h2v-2l14-9h2v-2l8-4 6-4 13-6 27-9 16-4 13-2h11v-15z" fill="#172833"/>
<path transform="translate(663,703)" d="m0 0 1 4-2 2 2 4 1 7-1 2-1 17v3 2l-2 1 1 3h2v5l-2 2v15l4 6 1 9-2 3 1 7 1 1v5l-5 3-4 4h-2l-2 4-4 2 4-6 8-8 1-3-11-8-10-9-4-3h-2l-5 7-12 6-10 2h-9l-8-2-8-3v-2l-4-2-8-9-5-11-1-5v-19l5-12 6-8 7-6 11-4 5-1h8l13 3 11 7 5 5v2l16-12 8-7h2z" fill="#172632"/>
<path transform="translate(476,675)" d="m0 0h33v113l-4 14-6 10-8 8-9 5-10 3h-17l-15-4-12-6-11-9-3-4v-2l8-6h2l2-4 8-9 2-3 4 2 8 7 8 4h10l5-3 3-7 1-101z" fill="#F5F8F9"/>
<path transform="translate(681,524)" d="m0 0 6 2 4 1 2 6v4l-9 10-6 7h-2l-1 3h-2l-1 3-8 7-11 9-13 10-16 9-11 6-21 9-19 6-22 5-13 2-10 1h-5v-40l2-1 25-3 19-5 21-8 14-7 3 1 5-2h5v-2l10-4h4l3-5 5 1v-3l6 1 2-3-2-1 1-2 4 2 4-4-3-1v-2h4l1-2 1 2 2-1 2 2 2-1v-4l6-1 2 2 3-1 3 2 4-4-2-1z" fill="#3A7A9B"/>
<path transform="translate(539,349)" d="m0 0h1l1 87 1-5 3 4v-5h2l1-3h2l2 4h3l4 1 1 2 3-3 2 2h2l2-2v4l3-7h1l1 20v102l-1 2-22 7-11 1-1-16z" fill="#4D9EC2"/>
<path transform="translate(681,385)" d="m0 0h1v13l-2 13-8 19h-2l-2 5-6 8-2 2h-3v2l-16 8-15 3h-40l1-39 30-1 9-3 6-5 3-3 4-9 2-4 3-1 3 3 1-2 5-1 3 1 4-2 3 1 1-1h17z" fill="#6FB4D0"/>
<path transform="translate(573,360)" d="m0 0h42l9 3 8 5 5 5 4 11v10l-3 9-3 5h-2l-2 4-7 5-7 2h-30v37h-3l-1-2-7 1-1-1v-6h-2z" fill="#162631"/>
<path transform="translate(524,171)" d="m0 0 16 1 26 5 18 5 20 8 21 10 2 4-2 2v3l-6-1h-3l-1-4-2 2-2-2-6-1v-2l-2-1 2-1h-2l-3 1v8l-6-1-2 6 2 3 3-1 4 1 1 4-4 6-4 2-4-3h2v-4l-6-2h-3l-7-2 1 4-1 1-9-1-25-6-18-2z" fill="#C7E9F2"/>
<path transform="translate(540,322)" d="m0 0 2 1-1 2 5 1 7 11v2h2l6 7v2h2l9 11 1 1v68l-1 22h-1l-1-12-2-4-4 1-1-2-4 2-1-3-2 2-2-3h-3l-4-1-2 6h-3l-1 12h-1z" fill="#90D4EC"/>
<path transform="translate(609,715)" d="m0 0 8 1 1 3h5 1l1-2 5 2v10l-3 4-2-2-1-2-3 4-3-1-4 4-5-4-1-3v4l2 3-2 4 2 4-1 3v3l-1 7h-2l2 2 3 1h3l5 2v-2l4-1 2-2 3 5-1 9 2-1v2l3 1v3h2l-1 5-4 4-5 2-6 1-7 2h-11v-2l-8-2 3-2-4-2-6-1-2-1-1 2-7-8-2-5v-2l-2-11h-2l-1-4 3-6 4-2 3-8h2l1-5 7-9v-3h6l4 1 1 1v-1l7-1 2-3z" fill="#303E4B"/>
<path transform="translate(713,302)" d="m0 0 4 1h3l1 1 3 4 7 18 5 17 5 22 1 6v15h-40l-2-18-3-14-6-18v-8l6-1 1 3 4-4 3-1 1-3h2l1-5h3l5-2v-6l-4 1-2-6h2z" fill="#92D4EB"/>
<path transform="translate(533,352)" d="m0 0h4l1 10v91l1 27v59l-2-3-2 3-3 1-3 4-9 2-2 21-2-1-1 2h-2v-3l-13 1-4-2v-3l-2-1h2l-4-6-1-8v-3l5-9 4-13 7-11 7-14 1 2h2v2h2v6l2-2 4-1 2 1 1 8 4-4 1-11v-11l-1-23 2-9 1-4-4-4v-2h2v-4h-5v-5l6-5-1-5-2-4h-2l2-4 4-3v-14l1-8-2-6h-1l-1-9-1-4 2-10z" fill="#33414E"/>
<path transform="translate(431,413)" d="m0 0 3 1 6 18 3 8v5l-7 1-3 5 2 5 2 3v11l-3 5 1 5 1 3h3v2l-3 3-2 7-2 1-1-2h-2v2h-5l-1 5-1 3h-2v9l-3 5 3 4-1 5-5 3-10-2-2 4-5-1-1-3h-3l-6-9-5-5-5-6h-3l-2-7-3-6 4 2 10 14 8 8 3 5 2 1 1-8 5-16 9-27 8-26 5-12 6-20z" fill="#182834"/>
<path transform="translate(650,335)" d="m0 0h1v6l-2 4 2-2h3l3 2 6-1 3 2 1 6h2l-1-4 2 1 2 4 2-1 4 11 3 17v12l-17 1-5 1h-2l-4 1h-4l-2 4-2 1-2-6-2 2-2-16-2-5 1-4h-2l-1-3v-4l-5-6-2-2h2l-3-4h-4l-1-2h-3v-3l1-1h-1l1-7 2-1 2-2v2h3l1 2h3l5-1 1 3 6 3 2-5 2-2h2z" fill="#92D4EB"/>
<path transform="translate(540,282)" d="m0 0h91l16 17 1 3-2 1h-106z" fill="#AFDAEA"/>
<path transform="translate(718,708)" d="m0 0h28l10 3 6 5 3 6v12l-4 8-6 5-9 2-28 1z" fill="#1A2A36"/>
<path transform="translate(573,448)" d="m0 0h1v102l-1 2-22 7-11 1-1-16v-22h1l1-7 3 1 1 2 6-3 4-3h2l1-3 8-1 5-1 1-9z" fill="#3A7B9C"/>
<path transform="translate(649,476)" d="m0 0h12l-2 5-5 8h-2l-1 4-5 5-14 1h-40v-19l1-2 15-1z" fill="#4FA0C4"/>
<path transform="translate(540,236)" d="m0 0 7 1 21 5 21 9 14 8 4 4-7 1-60 1z" fill="#C9EAF3"/>
<path transform="translate(315,406)" d="m0 0h5l3 7v3h-2l1 8h4 1l1 8-2 2-3-1v3l3-1 4 10v3h2l2 3h2v4l2 1 2 8 2 2 1 8 5 1 4 7v16l4 2 4 6 4 3 1 6h2l1-2 3 3 3 6 2 1v4l7 2 1 5 5 2 3 1 1 1v2l4 1 2 5v2l4-2 5 4 4 3v2l6 2 3 3h6l2 5-7-1-18-10-16-11-10-9-2-1v-2l-4-2-10-11-14-19-9-15-9-19-10-30-2-14-1-13z" fill="#1B2B36"/>
<path transform="translate(594,518)" d="m0 0h33l3 2v2l2 1v2l4 1 1 3 5 1v2l2 1-3 1-5-1-1 4h-2l-1 3h-3l-1 3-9 6-6 2h-4v-2l-8-1-1-5 1-1-4-1v-3l-3-1z" fill="#313F4C"/>
<path transform="translate(702,407)" d="m0 0h40v11l-2 13-2 3v-5l-2-1v-8h-3l-3-3 2 5-3 2 3 6 2 1h-2l-1 2-5-1-5 3-5-3-2 4-4 1-2 2-1-1v4l2 1 1-2 3 5h-3-2l-2 2-2-9-2 1-4 7 1 5-2 1-2 6-4 7-1-2 7-25 3-15z" fill="#6DB3D0"/>
<path transform="translate(387,342)" d="m0 0h5l1 2v3l-2 5-2 1v7l2 1v3l3 12v11l2 3 2-4h1l-1 9-6 17-4 12-2 3-3-1-1-2-1-38-6-26-1-4v-7h2l1 2 2-2 6-2 1-4z" fill="#192934"/>
<path transform="translate(600,708)" d="m0 0h8l13 3 3 2v5l-8 2 1-4h-6l-2-1-1 2-1 3-7 1h-3l-8-1-2 5-5 6-2 5h-2l-2 9-5 2-2 6v3h2l2 5 2 8h-2l6 9 3 3 3-1 7 1 1 2 6 1-1 2 4 2h-2v2l16-2 5-2h3v2l-9 3-6 1h-9l-8-2-8-3v-2l-4-2-8-9-5-11-1-5v-19l5-12 6-8 7-6 11-4z" fill="#1A2A35"/>
<path transform="translate(547,427)" d="m0 0h3l2 4h3l4 1 1 2 3-3 2 2h2l2-2v4l3-7h1v40l-2-3-2 1-1-6-7 1-2 1-3-3-4 5v-2l-4 1-3 5h-2v7l-3 1v-28l2-17 3 4v-5h2z" fill="#6EB3D0"/>
<path transform="translate(480,291)" d="m0 0h1l1 85 1 36 1 12-2 3-4-2-11-25-8-21-5-12-7-20v-6l5 2 2 3 2-1 3 5v2h2l3 5v3 2l-3 3 3 7-1 4 1 5 1 4 2 4 4-2-1 4h2v2l7-2z" fill="#1B2B36"/>
<path transform="translate(753,714)" d="m0 0 1 3h2l1-2 2 4 2 1 3 6v11l-4 6-3-1v2l-9 1-7-2-6-7-2-4-6-2 1-7-4-1v-3l24-3 4-1z" fill="#32404D"/>
<path transform="translate(443,759)" d="m0 0 5 1 4 4 2 5 2 6 1 8 2 1 4 7 3 1h3l4-8 1 3-4 6-4 2h-10l-9-5-9-8h-2l-1 2-3-1v-2h-4l-2-7v-2l3-1 2-6 5-2z" fill="#172732"/>
<path transform="translate(663,428)" d="m0 0h1l1 5 1 4-3 5-3 3h-3v2l-16 8-15 3h-20l-3-3 2-4 6 1v-2l4-2 6-2 4-2 5 1h3 3l1-2 5-4h7l5-5 4-2 3-3z" fill="#54A3C7"/>
<path transform="translate(540,282)" d="m0 0h20l16 2 3 2v5l-3 1-1 2-3 1 2 2h-2v2l-5 3h-18l-5-1-3-2-1 2z" fill="#ADDAEB"/>
<path transform="translate(801,667)" d="m0 0h5v13l-1 5 2-1 1-3h3l1 5-1 4-9 2v2h-2l-1 2-3-2-5-1 2 3 1 4-4-2-7-8-10-7-8-4 1-2h9l9-3 1-3h4l1-2v4h5l1 13 1-1 1-13 5-1z" fill="#1A2A36"/>
<path transform="translate(718,780)" d="m0 0h38v2h7l2 2-2 1v2l2 1-5 1v-3l-10 1-2 1-2-1-1 2-2-2h-8l-3 3-4 9v7l-1 4-4 2-2 4-1 9h-1z" fill="#162631"/>
<path transform="translate(573,364)" d="m0 0h1v53h11v2h2v37h-3l-1-2-7 1-1-1v-6h-2z" fill="#39576A"/>
<path transform="translate(280,592)" d="m0 0 8 1 6 5 2 4-1 6-4 6-6 3h-7l-6-3-1-3h-2l-2-5 1-6 4-5z" fill="#EDF4F7"/>
<path transform="translate(709,288)" d="m0 0h5l7 14-1 4-1-3-2 2-1-2-3 2v2l2-2 3 4-1 10-5-2-1 2-1-1-5 9-4 1-1 2h-3l-1-8 2-7-1-4 2-6 2-4 5-5 2-6z" fill="#A8D9EA"/>
<path transform="translate(605,379)" d="m0 0h11l5 5 1 9-1 5-28 1v-10l1-9z" fill="#4EA0C5"/>
<path transform="translate(594,518)" d="m0 0h30l2 1-1 4-13 13-6 2h-11l-1-1z" fill="#4C9CC1"/>
<path transform="translate(573,550)" d="m0 0 2 2v12l-7 1v2l-2 1v2l5 2 1 3-12 3-5-3-5-6v-2l-5-1-3-3v-3l16-4 11-4h4z" fill="#32404D"/>
<path transform="translate(735,591)" d="m0 0 8 1 5 5 2 3-1 9-5 5-10 1-6-4-2-3v-10l4-5z" fill="#F0F6F8"/>
<path transform="translate(466,507)" d="m0 0 3 2 7 19 6 17v12h-1l-3-15h-1l-1 2-2-1-2-2v-4l-3 1-6 8-2 1-2-1v-2h-2l-2-10-1-3 1-3 10-2 1 1 1-7-2 1 1-6 3 4v7l2-1v3h2l-4-10-3-8z" fill="#162632"/>
<path transform="translate(396,288)" d="m0 0h12l9 3 2 4 5 2 1 4-1 1h-8l-8-1-7 1-2 1-18-1-1-3 6-2 6-7z" fill="#152530"/>
<path transform="translate(533,352)" d="m0 0h4l1 10v86l-2 3-5-5v-2h2v-4h-5v-5l6-5-1-5-2-4h-2l2-4 4-3v-14l1-8-2-6h-1l-1-9-1-4 2-10z" fill="#32404D"/>
<path transform="translate(88)" d="m0 0h32v8h-2l-1-2-5 5-4-1 1 5 3 2-4 2-6 2-3-9h-2l-2 3v-7l-7-2z" fill="#33414E"/>
<path transform="translate(361,574)" d="m0 0 4 1 13 9 20 12 16 8-2 4h-8l-1 2h-2l-1-3-1 3-6-3-5-4-4-2 1-2-1-3-5 2-2-4h8v3l1-3 5 2-2 2 5 1 1-1-6-4-4-2-5-2h-2l-1-2h-3l-1-2-5-1 1-3-8-7z" fill="#1F2F3B"/>
<path transform="translate(663,428)" d="m0 0h1l1 5 1 4-3 5-3 3h-3v2l-7 4h-5l-6 2-3-5-2-3h2l1-2 5-4h7l5-5 4-2 3-3z" fill="#53A2C6"/>
<path transform="translate(540,282)" d="m0 0h20l16 2 3 2v5l-3 1-1 2-3 1 2 2h-2v2l-5 3-2-1 1-1-7-1v-1l7-1v-3h-3l-3-6-1 6-3-2-2-1-2-2-4-2 1-1-1-2-7-1v18h-1z" fill="#A4D8EB"/>
<path transform="translate(447,341)" d="m0 0 5 2 2 3 2-1 3 5v2h2l3 5v3 2l-3 3 3 7-1 4 1 5-3 3-7-17-7-20z" fill="#1C2C37"/>
<path transform="translate(455,242)" d="m0 0 1 3-1 7-3 3h-3l-2 2h-3l-4 4-4-2-2 2-6 1h-12l4-3h2v-2l7-3 16-8z" fill="#386680"/>
<path transform="translate(509,227)" d="m0 0h6l4 1h6l1 3-1 4 2 3v5l-3 5-1 9 1 3-4 1-1-4v-23h-2l-4 1h-17v-1l7-1-4-1 1-4h5l2 3z" fill="#32404D"/>
<path transform="translate(562,220)" d="m0 0 8 1 22 8 13 7 1 2-5-1-5-2 3 3-7-1-2 1v-2l-4-1-2-1v-2l-7-1-1-1-8-1v-2l-8-1v-5z" fill="#1B2B36"/>
<path transform="translate(717,499)" d="m0 0h2l-1 5v3l-1 5h3v4h-2l1 4-2 4-6 2-3 2h-1l-5-1 1 4-6 5-1-4 8-12h2l2-5z" fill="#1A2935"/>
<path transform="translate(714,305)" d="m0 0 4 4-1 10-5-2-1 2-1-1-5 9-4 1-1 2h-3l-1-8 2-7-1-4 2-2 2 3h6l-1-5 2-1 1 3 2 1v-3h2z" fill="#9FD7EB"/>
<path transform="translate(651,328)" d="m0 0 5 2 9 8 7 11 1 5-3-2-1-2v2h-2v-2l-2-1v-3l-2 2-2-2h-5l-3-1v-3l-2 3h-2l-1 2-1-2 3-4 1-7-3-1v-4z" fill="#A6D7E9"/>
<path transform="translate(533,775)" d="m0 0 3 1 6 15 8 10 8 8 13 8 11 5 18 4h22v2l-6 1h-12l-22-3v-2l-6-1-10-5-8-6-11-10v-2l-3-1v-2h-2l-1-4h-2l-5-11z" fill="#23333F"/>
<path transform="translate(604,197)" d="m0 0 2 3 1 1 6 3 1 4-4 5h-3-3l-3 2-2 4h-6l-2-7 3-7 5 1 1-6zm11 5 2 3-2 2-1-3z" fill="#B4DCEB"/>
<path transform="translate(585,421)" d="m0 0h1v32l-2-4-5-1-5-4-1-2v-14h2l1 2 2-1 2 1 1-2 2 1z" fill="#172732"/>
<path transform="translate(657,280)" d="m0 0 4 2 12 17 9 15 6 12v5l-3-3-3-8-1-3-3 1v-3l-5 1v-6h-2l1-6h-3l-1-5-2-1-1 3-2-4-3-3 1-3-1-5-4-3z" fill="#1C2C37"/>
<path transform="translate(608,728)" d="m0 0 2 4 3 3 1 4v4l5 1-5 6 1 1 1-2 4 3h-3l3 4-2 2 2 4h-3l-5-2h-3l-3-1v-2h2v-7-3-3h2l-3-4 2-5-3-3z" fill="#23323E"/>
<path transform="translate(525,229)" d="m0 0h4l5 9-1 13-2 3-7 5-2-2 1-9 2-5h2l-2-7-1-4z" fill="#152530"/>
<path transform="translate(571,764)" d="m0 0h1l2 7 6 8 2 2 3-1 7 1 1 2 6 1-1 2 4 2h-2v2l16-2 5-2h3v2l-9 3-6 1h-9l-8-2-8-3v-2l-4-2-8-9-2-6z" fill="#21313E"/>
<path transform="translate(509,793)" d="m0 0 1 3-1 5 1 4h2v4h-2l-2 4-7 6-7 2-2 2-2-2 7-8 6-9z" fill="#1A2A35"/>
<path transform="translate(793,755)" d="m0 0h2v4l2 2-3 7-10 5-2 3-3-1h-3l-4 1-2 4-3-1-9 2 2-3 12-4 11-7 6-7 1-2h2z" fill="#1C2C38"/>
<path transform="translate(533,352)" d="m0 0h4l1 10v31l-2-1-2-6h-1l-1-9-1-4 2-10z" fill="#313F4C"/>
<path transform="translate(627,351)" d="m0 0 3 3 1 4 3 3 3 4-1 6h2l1 4h-2l-7-8-7-4-8-2 2-4 2-1 1-2v2l4-4z" fill="#A5D6E8"/>
<path transform="translate(377,594)" d="m0 0h8v3l1-3 5 2-2 2 5 1 1 2h3l8 3 4 1 1 3h-7l-1 2h-2l-1-3-1 3-6-3-5-4-4-2 1-2-1-3-5 2z" fill="#192934"/>
<path transform="translate(541,323)" d="m0 0h33l-2 4-4 1-7 2h-9-3l-5-4-3-1z" fill="#C4E7F1"/>
<path transform="translate(605,379)" d="m0 0h11v2l-17 2-2 1v7l-1 5h23l-1-12h3l1 9-1 5-28 1v-10l1-9z" fill="#64A4C0"/>
<path transform="translate(576,217)" d="m0 0h6l3 2 3-1 5 3-1 4 3 2v-1h5v3l-4 2-9-3-14-5 3-2z" fill="#B9E0ED"/>
<path transform="translate(636,533)" d="m0 0h5l-2 4-15 12-16 10-6-1v-2l-2 1 2-4 5-2 9-2 8-4 5-5 3-1 3-3z" fill="#1C2B37"/>
<path transform="translate(315,406)" d="m0 0h5l3 7v3h-2l1 8h4 1l1 8-2 2-3-1v3l3-1-1 4-3 1-2-5-2-14-1-13z" fill="#1A2A35"/>
<path transform="translate(522,511)" d="m0 0 5 1v8l1 8h-2l-1 4-3 4h-2l-1-2 1-22z" fill="#152530"/>
<path transform="translate(623,336)" d="m0 0 1 2h3l1 2h3l5-1v5h-2l-2 1-1 2-2 3h-2v2h-4l-1-2h-3v-3l1-1h-1l1-7 2-1z" fill="#98D6EC"/>
<path transform="translate(540,282)" d="m0 0h20v2l8 1 2 3-8 1-2-1-1 6-3-2-2-1-2-2-4-2 1-1-1-2-7-1v18h-1z" fill="#85C7E0"/>
<path transform="translate(610,240)" d="m0 0 4 1 17 12 14 12 1 5-2 1-2-1v-2h-2v-4l-4-3v-2l-4-2-6-4h-1l-1 2-3-4-3-1-1-2-6-2-1-2h3l-3-2z" fill="#21313D"/>
<path transform="translate(630,207)" d="m0 0h7l15 10 5 5-3 2v-2l-3 1-8-4-2 1-3-5-4 1-1-5 5 2v-2l-7-2z" fill="#BBE2EE"/>
<path transform="translate(806,669)" d="m0 0h2l3 5 3 1 2-6h2l1 6v8l-5 1-1-4-4 1-2 4h-2z" fill="#DDEDF2"/>
<path transform="translate(593,478)" d="m0 0h37l-1 2-9 1h-8l-1 2-2-2-5 1-5 2h-2l-1 2h-2v8h-1z" fill="#76BBD6"/>
<path transform="translate(642,681)" d="m0 0h3v2l7 2 3 4 3 1 3 5v2h2v2l-4 2-12-12-8-6z" fill="#1C2C38"/>
<path transform="translate(559,421)" d="m0 0 3 1 2 3 3 3 1 5-2 2h-2l-1-2-4 2-1-3-2 2-2-3h-3l1-6 3-1 2 4 1-2-2-1 1-3z" fill="#7DC2DC"/>
<path transform="translate(714,305)" d="m0 0 4 4-1 10-5-2-1 2-3-4-2-5 1-4 4 4v-3h2zm-9 12h4l-1 5h-2zm1 2m-4 2 5 2-2 4-2-1z" fill="#9FD7EB"/>
<path transform="translate(612,195)" d="m0 0 9 3 5 3 1 3-2 2v3l-6-1h-3l-1-4-1-3-3 1-2-3 3-1-2-2z" fill="#BEE4F0"/>
<path transform="translate(442,448)" d="m0 0 5 1 4 11 1 10-4-1v-4l-4-2-4-10z" fill="#1C2D39"/>
<path transform="translate(456,327)" d="m0 0h3l5 6v4h-12l-5 1-1-8 2 1 5-1 1-2z" fill="#152530"/>
<path transform="translate(584,227)" d="m0 0 6 1 15 8 1 2-5-1-5-2 3 3-7-1-2 1v-2l-4-1-4-4v-3z" fill="#1C2C37"/>
<path transform="translate(80,43)" d="m0 0 3 2 3 1-1 9-2 3-3-1v-2l-8 1v-5l6 1 1-3-5-1 1-3z" fill="#34424F"/>
<path transform="translate(606,201)" d="m0 0 7 3 1 4-4 5h-3-3-3l-1-5 2-3v2h2zm9 1 2 3-2 2-1-3z" fill="#B9E0ED"/>
<path transform="translate(369,495)" d="m0 0 4 2 10 14 8 8 3 5 5 2-1 2h-5l-6-9-5-5-5-6h-3l-2-7z" fill="#1F2E3A"/>
<path transform="translate(633,283)" d="m0 0 4 2v2h2l-1-3 2-1 4 4 4 2-2 1-2-1v2h5l3 4-4 2-1 3-10-10-4-5z" fill="#1A2A35"/>
<path transform="translate(716,432)" d="m0 0 4 1 1 4h-2l-2 5h-2l-1 3-3-1-1-2h-4l1-5 3-1 2-2h3z" fill="#54A4C7"/>
<path transform="translate(341,424)" d="m0 0h2l5 19 1 11-5-5-2-3v-7l-2 1-1-5h3l-2-10z" fill="#1C2D38"/>
<path transform="translate(509,227)" d="m0 0h6l3 4h-2l-1 3-2 1h-17v-1l7-1-4-1 1-4h5l2 3z" fill="#303E4B"/>
<path transform="translate(275,736)" d="m0 0 2 1 5 18v2h2l2-10 3-9h1l-1 9-5 17-2 1-7-24z" fill="#22323E"/>
<path transform="translate(437,250)" d="m0 0v3l-4 7-2 2h-15l4-3h2v-2l7-3z" fill="#41718D"/>
<path transform="translate(713,302)" d="m0 0 4 1h3l1 1 3 4-1 10-5-1-1-2v-6l-4 1-2-6h2z" fill="#9BD4E9"/>
<path transform="translate(675,304)" d="m0 0 4 5 9 17v5l-3-3-3-8-1-3-3 1v-3l-5 1v-11z" fill="#21313C"/>
<path transform="translate(430,820)" d="m0 0 5 1 15 5 5 1h22v2l-9 1h-14l-18-5-6-4z" fill="#192934"/>
<path transform="translate(687,464)" d="m0 0 2 4-11 22h-3l-2 2 1-5 6-9 2-5 1-5z" fill="#283743"/>
<path transform="translate(389,592)" d="m0 0 5 2 20 10-2 4-2-1v-2l-7-1-5-2-5-5-4-3z" fill="#24333F"/>
<path transform="translate(357,734)" d="m0 0 2 3 2 4 3 3-1 4h2v4l2 1h-2l2 4v7l-2-1-7-19z" fill="#1E2E39"/>
<path transform="translate(649,476)" d="m0 0h12l-2 5-3 5-3-1v-2l-3-1-3-3h-7l-4-2z" fill="#6EB4D1"/>
<path transform="translate(349,456)" d="m0 0 3 1 6 13 6 11v3l-4-1v-3l-4-1-1-4v-3l-5-10z" fill="#223440"/>
<path transform="translate(636,378)" d="m0 0 2 3 1 2v13l-2 4h-3v-15l-2-4 4-1z" fill="#303E4B"/>
<path transform="translate(596,215)" d="m0 0 5 1 1 4-4 6-4 2-4-3h2v-4l-3-2v-2l-2-1h8z" fill="#C1E5F0"/>
<path transform="translate(615,743)" d="m0 0 4 2-5 5 1 1 1-2 4 3h-3l3 4-2 2 2 4h-3l-4-4h-3l1-10z" fill="#293744"/>
<path transform="translate(455,242)" d="m0 0 1 3-1 7-3 3h-2v-2l-4-2-1-3-2-1z" fill="#37647D"/>
<path transform="translate(695,352)" d="m0 0 3 2 4 20v5l-4-1-1-13-1-7-4 1v-5z" fill="#1F2E3A"/>
<path transform="translate(601,225)" d="m0 0 4 1 3-1 3 6 2 2-1 3-5-1v-2l-7 1v-7z" fill="#BCE2EE"/>
<path transform="translate(377,594)" d="m0 0h8v3l1-3 5 2-2 2 5 1 1 3-3 4-4-3-4-2 1-2-1-3-5 2z" fill="#162631"/>
<path transform="translate(708,515)" d="m0 0h3l1 2-5 8-5 2 1 4-6 5-1-4 8-12h2z" fill="#283743"/>
<path transform="translate(573,442)" d="m0 0 6 5h5l2 7-2 2-1-2-7 1-1-1v-6h-2z" fill="#32404D"/>
<path transform="translate(365,316)" d="m0 0 2 1 2 7 1 4 4 1v7l-1 2 1 6-1-3h-2l-6-19z" fill="#20303B"/>
<path transform="translate(580,322)" d="m0 0h36v1h-18v2h-14l-11 1 1-3z" fill="#ADD8E7"/>
<path transform="translate(323,741)" d="m0 0 3 1 6 21-1 3-4-12-3-5-3 6h-1l1-8z" fill="#22323E"/>
<path transform="translate(569,326)" d="m0 0 5 1 2 3-5 1-4-2zm-4 2 2 1v3l-2 2-2 1-1 2-4 2-2-4 6-4z" fill="#B9DFED"/>
<path transform="translate(632,372)" d="m0 0h3l2 1 4 11v10l-3 9-3-1v-6l2 3 1-3v-13l-1-5h-3z" fill="#21313E"/>
<path transform="translate(709,288)" d="m0 0h5l1 4-2 2h-2l-3 4h-2l-1 4-1-4 3-3 1-5zm-1 4m-5 8m-2 1 3 1h-3zm-1 2 3 1-2 6-3-2z" fill="#A3D6E8"/>
<path transform="translate(47,77)" d="m0 0h3l2 5-6 3h-4l-1 5h-1v-5h-2l-2 2-1-4 4-1 1-1z" fill="#506171"/>
<path transform="translate(559,239)" d="m0 0 8 1 14 5 14 7-4 1-18-8-14-5z" fill="#233340"/>
<path transform="translate(540,236)" d="m0 0 7 1 5 1-8 4-1 5v3h-1l-1 6h-1z" fill="#E2F1F6"/>
<path transform="translate(624,548)" d="m0 0m-2 1 2 1 1 2-7 4-1 3-9 2h-3l4-4 10-6z" fill="#4591B5"/>
<path transform="translate(636,533)" d="m0 0h5l-2 4-15 12-5 2 2-4 7-5 1-2 3-1 3-3z" fill="#1D2C38"/>
<path transform="translate(730,417)" d="m0 0 3 1 2 2 2-1v7l1 2-5 1-2-1-1 2-2-4 1-3 2-2z" fill="#59A7C9"/>
<path transform="translate(610,240)" d="m0 0 4 1 11 8v6l-4-4-3-1-1-2-6-2-1-2h3l-3-2z" fill="#1D2D39"/>
<path transform="translate(791,669)" d="m0 0h12v2l-5 1v13l-3 2 1-15h-5z" fill="#DAEDF3"/>
<path transform="translate(24,75)" d="m0 0h5l-1 3-4-2zm3 3 3 4-2 5-1 1h-11v-1h6l-1-3 3-1v-4z" fill="#33414F"/>
<path transform="translate(695,533)" d="m0 0 1 3-1 5h-4l-3 7-4 3h-2l-1 3-2-2 13-15z" fill="#303E4B"/>
<path transform="translate(15,96)" d="m0 0h2l2 12 2 2 1 5-3-1-3-5-4-3 1-4z" fill="#4C5C6C"/>
<path transform="translate(533,775)" d="m0 0 3 1 6 15 4 5v2l-4-1-1-4h-2l-5-11z" fill="#243744"/>
<path transform="translate(419,797)" d="m0 0h2l-2 4-5 2 6 8 8 6v2l-4-2-8-6-3-3-1-6 6-2z" fill="#202F3B"/>
<path transform="translate(345,699)" d="m0 0 2 1 9 30-3-1-8-25z" fill="#23323E"/>
<path transform="translate(715,292)" d="m0 0 3 4 3 6-1 4-1-3-2 2-1-2-2 1v-2h-2l-1-3 2-3z" fill="#A4D5E8"/>
<path transform="translate(645,214)" d="m0 0 4 1 8 6-3 3v-2l-3 1-8-4z" fill="#B8E1EE"/>
<path transform="translate(755,712)" d="m0 0 4 2 4 4 2 4v12l-2 1v-9l-2-4-2-2-2-4-3 1z" fill="#223440"/>
<path transform="translate(411,555)" d="m0 0 7 2 3 3h6l2 5-7-1-13-7z" fill="#20303C"/>
<path transform="translate(608,744)" d="m0 0h2l2 5-1 7 3-1 2 5h-3l-3 1-4-2v-2h2v-7-3z" fill="#1C2C37"/>
<path transform="translate(541,299)" d="m0 0h5l3 2h26l1 2h-36z" fill="#C7E9F2"/>
<path transform="translate(608,193)" d="m0 0 4 1 1 6h-3l4 1v5l-5-3h-4v-2l-2-1 5-5z" fill="#C4E7F1"/>
<path transform="translate(593,826)" d="m0 0h29v2l-6 1h-12l-9-1z" fill="#192935"/>
<path transform="translate(664,340)" d="m0 0 4 2 5 9-1 3-3-4v2h-2v-2l-2-1v-3l-2 2v-5h2z" fill="#ACD9E9"/>
<path transform="translate(691,328)" d="m0 0h3v5l4 2 3 6-3 3-2-6-5-2z" fill="#A0D7EB"/>
<path transform="translate(704,300)" d="m0 0 2 3-3 2v-3zm-3 5h2l5 7-2 3-6-1-1-5 2-1z" fill="#ACD9EA"/>
<path transform="translate(553,454)" d="m0 0h3l1 2 2-1 1 7-4-3-4 5v-2h-2l1-7z" fill="#65AECD"/>
<path transform="translate(618,384)" d="m0 0h3l1 9-1 5h-16l1-2h13z" fill="#5EA3C1"/>
<path transform="translate(605,379)" d="m0 0h11v2l-17 2-2 1v-2h-3v-2z" fill="#65A8C4"/>
<path transform="translate(699,375)" d="m0 0h1l1 13-4 2-1-2 1-2-2-1 2-9z" fill="#2E3C49"/>
<path transform="translate(609,338)" d="m0 0 4 1-1 3-2 4-4 2-2-2-2-3 5-2v-2z" fill="#A4D8EB"/>
<path transform="translate(57,72)" d="m0 0h5l1 4-2 5h-2l-1 2-2-4v-6z" fill="#516272"/>
<path transform="translate(701,438)" d="m0 0h3 1v8l-4 3-4-2 2-6z" fill="#54A4C7"/>
<path transform="translate(672,345)" d="m0 0 2 3 5 11 1 9h-2l-4-14-3-5z" fill="#202F3B"/>
<path transform="translate(697,321)" d="m0 0h5l2 3-1 4h-2l-1 2h-3l-1-8z" fill="#99D6EC"/>
<path transform="translate(267,709)" d="m0 0 2 3 4 13 2 5-1 4-2-3-5-16z" fill="#243440"/>
<path transform="translate(559,421)" d="m0 0 3 1 2 3 3 3 1 5-4-3-1-2-3 1v-2l-4-2 1-3z" fill="#84C9E2"/>
<path transform="translate(633,361)" d="m0 0 4 4-1 6h2l1 4h-2l-8-10z" fill="#ACD9E9"/>
<path transform="translate(608,477)" d="m0 0h28l4 1v2h-8l-2 1v-3h-22z" fill="#5598B8"/>
<path transform="translate(645,815)" d="m0 0h3v2l-12 6-9 3 4-4z" fill="#1F2F3B"/>
<path transform="translate(466,507)" d="m0 0 3 2 6 18-3-1-4-11-2-5z" fill="#21313D"/>
<path transform="translate(478,411)" d="m0 0h2l1 3 2-2 1 12-2 2-5-9z" fill="#344553"/>
<path transform="translate(383,414)" d="m0 0h1v8l2-5 3 2-1 5-2 3-3-1-1-2v-8z" fill="#2F3E4B"/>
<path transform="translate(475,535)" d="m0 0 4 1 3 9v12h-1l-3-15-1-4h-2z" fill="#22333F"/>
<path transform="translate(450,472)" d="m0 0 2 2 2 3h3l1 9-1-2h-3l-3-4z" fill="#1D2F3B"/>
<path transform="translate(355,329)" d="m0 0 1 4-5 11-3 8-2 1 2-9z" fill="#22323E"/>
<path transform="translate(430,820)" d="m0 0 5 1 15 5-1 2-10-2-8-4z" fill="#20303C"/>
<path transform="translate(440,248)" d="m0 0h5l4 5-2 4h-3l-2 2-2-2 4-4-1-3-4-1z" fill="#3B6E8A"/>
<path transform="translate(626,201)" d="m0 0 9 5-3 2-9-1 3-4zm-1 7 1 2-3 1v-2z" fill="#AEDAE9"/>
<path transform="translate(681,524)" d="m0 0 6 2 2 1v4h-2l-1 2v-2l-3 1-2-3z" fill="#4189AC"/>
<path transform="translate(561,428)" d="m0 0h4l2 3-1 4h-2l-1-2-4 2-1-2 1-4z" fill="#80C5DF"/>
<path transform="translate(713,302)" d="m0 0 4 1h3l-1 8-4-2-2 1-2-6h2z" fill="#96D6EC"/>
<path transform="translate(610,237)" d="m0 0h3v2l6 1 5 5v2l-4-1-9-6z" fill="#B5DEEC"/>
<path transform="translate(615,478)" d="m0 0h15l-1 2-9 1h-8zm-5 3h2l-1 2z" fill="#6CB2CF"/>
<path transform="translate(645,450)" d="m0 0h3v2l-10 4h-6l2-1 1-2 4-2 1 1z" fill="#65ACCB"/>
<path transform="translate(613,341)" d="m0 0 1 2 4-2-1 5 2 1-4 4-3-4-1-4h2zm0 3 1 2 1-2z" fill="#9FD7EB"/>
<path transform="translate(703,312)" d="m0 0h5l1 5-2 1-2-1 1 5-5-2 1-2v-3z" fill="#98D6EC"/>
<path transform="translate(707,306)" d="m0 0 4 4v-3h2l-1 6 1 2-2 2-3-2-2-5z" fill="#A2D8EB"/>
<path transform="translate(819,672)" d="m0 0h2l1 11-2 4h-6v-2l5-1z" fill="#152530"/>
<path transform="translate(809,668)" d="m0 0 5 1 2-1-1 5-1 2-4-1-2-5z" fill="#1C2B37"/>
<path transform="translate(509,231)" d="m0 0 7 1-3 3h-17v-1l12-2z" fill="#2C3F4C"/>
<path transform="translate(672,527)" d="m0 0 2 1 1 3 3-2 1 3-3 3-3-2-2 3-1-7h2zm7 3h2l-1 2z" fill="#448FB2"/>
<path transform="translate(451,464)" d="m0 0 2 2 3 8v3h-2l-1 2-2-5z" fill="#314553"/>
<path transform="translate(623,336)" d="m0 0 1 2h3l-1 5-4 2v-3h-2l-1 4 1-7 2-1z" fill="#A1D8EB"/>
<path transform="translate(584,207)" d="m0 0 5 1 2-1-1 6h-3l-4-1zm-1 6 2 1-2 3z" fill="#BAE0ED"/>
<path transform="translate(257,801)" d="m0 0h2l5 12v6l-2-3-5-13z" fill="#202F3B"/>
<path transform="translate(709,445)" d="m0 0m-2 0 2 1-2 6-2 2-2-1-1 2-1-4 2-3h2l1-2z" fill="#59A7C9"/>
<path transform="translate(695,352)" d="m0 0 3 2 1 7h-2l-2-3-3 1v-5z" fill="#1C2E3A"/>
<path transform="translate(604,197)" d="m0 0 2 3-1 5-1 2h-2v-2h-2v-5z" fill="#B6DDEB"/>
<path transform="translate(362,484)" d="m0 0h3v2h2l5 8-1 2-5-4z" fill="#283B48"/>
<path transform="translate(58,92)" d="m0 0h3l2 1 1 4-3 3-4-1z" fill="#506170"/>
<path transform="translate(579,822)" d="m0 0 11 2 4 2-4 1-8-1v-2h-3z" fill="#1F2E3A"/>
<path transform="translate(694,451)" d="m0 0 2 2v5l-5 8-1-2z" fill="#64AAC8"/>
<path transform="translate(616,322)" d="m0 0h7l-3 3-22-1v-1z" fill="#CAEBF4"/>
<path transform="translate(275,736)" d="m0 0 2 1 3 11v7h-1l-4-14z" fill="#253541"/>
<path transform="translate(615,743)" d="m0 0 4 2-5 5v4l-3 1v-7z" fill="#24333F"/>
<path transform="translate(717,499)" d="m0 0h2l-1 5-2 7-4-1 2-6z" fill="#23323E"/>
<path transform="translate(365,316)" d="m0 0 2 1 2 7 1 5-2 2-3-9z" fill="#23323E"/>
<path transform="translate(563,323)" d="m0 0h11l-2 4h-6v-2l-3 1z" fill="#C8EAF3"/>
<path transform="translate(647,269)" d="m0 0 4 2 2 3h-2v2h-5l-1-4h2z" fill="#22313D"/>
<path transform="translate(606,551)" d="m0 0 5 1-6 6-3-1h-2l2-4z" fill="#33414E"/>
<path transform="translate(329,543)" d="m0 0 4 2 8 8-1 3-4-4v-2l-4-2z" fill="#23333F"/>
<path transform="translate(462,492)" d="m0 0 2 2 4 12-1 2-2-1-4-11z" fill="#2E4351"/>
<path transform="translate(629,359)" d="m0 0 1 2h3l-1 3-4 2-5-3 2-2z" fill="#90CDE4"/>
<path transform="translate(627,351)" d="m0 0 3 3v2l-7 2-1-3 2-3z" fill="#A9D9EA"/>
<path transform="translate(569,326)" d="m0 0 5 1 2 3-5 1-4-2zm-4 3h2v2l-3 1z" fill="#BCE2EE"/>
<path transform="translate(509,227)" d="m0 0h6l3 4-5 2-3-1z" fill="#2E3C49"/>
<path transform="translate(656,222)" d="m0 0 5 2 6 6-1 2-8-6z" fill="#B4DDEB"/>
<path transform="translate(69,95)" d="m0 0 4 1-1 4-3 1-3-1-1-4z" fill="#506070"/>
<path transform="translate(544,798)" d="m0 0 4 1 10 10h-3l-8-7v-2l-3-1z" fill="#21303C"/>
<path transform="translate(429,676)" d="m0 0h2l-3 10-2 5h-1v-6z" fill="#22313D"/>
<path transform="translate(736,452)" d="m0 0 2 4h-2v8l-3 3v-7z" fill="#1E2D39"/>
<path transform="translate(718,432)" d="m0 0 3 2v3h-2l-2 5-2-4 2-5z" fill="#5CA9CA"/>
<path transform="translate(705,297)" d="m0 0h1v5l-2-4zm-2 3m-2 1 3 1h-3zm-1 2 3 1-2 6-3-2z" fill="#A2D8EB"/>
<path transform="translate(34,83)" d="m0 0 6 2 1 10h-3v-6l-4-1z" fill="#33414E"/>
<path transform="translate(727,479)" d="m0 0h1l-1 7-4 8h-1v-5z" fill="#202F3B"/>
<path transform="translate(636,339)" d="m0 0h5l3 2-1 4-6-2z" fill="#A9D9EA"/>
<path transform="translate(594,322)" d="m0 0h22v1h-18v2l-4-1z" fill="#A2D7E9"/>
<path transform="translate(455,242)" d="m0 0 1 3v2l-4-1-3 1h-3l-1 3v-2l-2-1z" fill="#466478"/>
<path transform="translate(399,602)" d="m0 0 13 1 2 2-3 3-1-3-7-1z" fill="#2D3C48"/>
<path transform="translate(390,519)" d="m0 0 4 5 5 2-1 2h-5l-4-7z" fill="#253440"/>
<path transform="translate(707,437)" d="m0 0h3 3l-1 5-5 1-1-5z" fill="#58A6C8"/>
<path transform="translate(547,427)" d="m0 0 1 4 3 1-2 3h-3l-1-5h2zm-2 8m-2 1h2l-1 2z" fill="#7ABFDA"/>
<path transform="translate(537,393)" d="m0 0h1v10l-1 10h-1l-1-13z" fill="#33414E"/>
<path transform="translate(681,318)" d="m0 0h3l4 8v5l-3-3-3-8z" fill="#1F2F3A"/>
<path transform="translate(422,257)" d="m0 0h4l-1 5h-9l4-3h2z" fill="#4B6F85"/>
<path transform="translate(593,208)" d="m0 0 6 2v3l-5 2-2-6z" fill="#BCE1EE"/>
<path transform="translate(695,533)" d="m0 0 1 3-1 5h-6z" fill="#2C3A47"/>
<path transform="translate(567,507)" d="m0 0 2 1-2 4-5 1-1-4z" fill="#3F85A7"/>
<path transform="translate(281,447)" d="m0 0 2 1 2 8v6l-2-2-2-7z" fill="#243440"/>
<path transform="translate(584,324)" d="m0 0h8l-1 3h-5l-2 1-7-1v-1h7z" fill="#C0E4EF"/>
<path transform="translate(383,814)" d="m0 0h1l-1 8-2 6h-1l1-10z" fill="#293D4A"/>
<path transform="translate(316,765)" d="m0 0 1 3-4 10h-1v-6z" fill="#243542"/>
<path transform="translate(607,748)" d="m0 0 2 2-1 7-4-1-1-3h2z" fill="#293844"/>
<path transform="translate(699,528)" d="m0 0 4 1v2l-6 5-1-4z" fill="#313F4C"/>
<path transform="translate(623,444)" d="m0 0 4 1-2 5-3-1-1 2-1-2z" fill="#59A7C9"/>
<path transform="translate(476,418)" d="m0 0 4 2 2 4v3l-4-2-2-4z" fill="#24333F"/>
<path transform="translate(643,396)" d="m0 0 1 4-8 8 1-5z" fill="#7BC1DC"/>
</svg>
